<?xml version="1.0" encoding="UTF-8" standalone="no"?>
<!-- Generator: Adobe Illustrator 14.0.0, SVG Export Plug-In . SVG Version: 6.00 Build 43363)  -->

<svg
   xmlns:dc="http://purl.org/dc/elements/1.1/"
   xmlns:cc="http://creativecommons.org/ns#"
   xmlns:rdf="http://www.w3.org/1999/02/22-rdf-syntax-ns#"
   xmlns:svg="http://www.w3.org/2000/svg"
   xmlns="http://www.w3.org/2000/svg"
   xmlns:sodipodi="http://sodipodi.sourceforge.net/DTD/sodipodi-0.dtd"
   xmlns:inkscape="http://www.inkscape.org/namespaces/inkscape"
   version="1.1"
   id="Layer_1"
   x="0px"
   y="0px"
   width="876.28235"
   height="570.57001"
   viewBox="0 0 876.28238 570.57002"
   enable-background="new 0 0 826.121 613.904"
   xml:space="preserve"
   sodipodi:docname="memhierarchy_detail.svg"
   inkscape:version="0.92.3 (2405546, 2018-03-11)"><metadata
   id="metadata965"><rdf:RDF><cc:Work
       rdf:about=""><dc:format>image/svg+xml</dc:format><dc:type
         rdf:resource="http://purl.org/dc/dcmitype/StillImage" /><dc:title /></cc:Work></rdf:RDF></metadata><defs
   id="defs963"><marker
   inkscape:isstock="true"
   style="overflow:visible"
   id="marker12266"
   refX="0"
   refY="0"
   orient="auto"
   inkscape:stockid="Arrow1Lend"><path
     transform="matrix(-0.8,0,0,-0.8,-10,0)"
     style="fill:#000000;fill-opacity:1;fill-rule:evenodd;stroke:#000000;stroke-width:1.00000003pt;stroke-opacity:1"
     d="M 0,0 5,-5 -12.5,0 5,5 Z"
     id="path12264"
     inkscape:connector-curvature="0" /></marker><marker
   inkscape:stockid="Arrow1Lend"
   orient="auto"
   refY="0"
   refX="0"
   id="Arrow1Lend"
   style="overflow:visible"
   inkscape:isstock="true"
   inkscape:collect="always"><path
     id="path1777"
     d="M 0,0 5,-5 -12.5,0 5,5 Z"
     style="fill:#000000;fill-opacity:1;fill-rule:evenodd;stroke:#000000;stroke-width:1.00000003pt;stroke-opacity:1"
     transform="matrix(-0.8,0,0,-0.8,-10,0)"
     inkscape:connector-curvature="0" /></marker>
	
	
	
	
	
	
	
	
	
	
	
	
	
	
	
	
	
	
	
	
	
	
	
	
	
	
	
	
	
	
	
	
	
	
	
	
	

	
	
	
	
	
</defs><sodipodi:namedview
   pagecolor="#ffffff"
   bordercolor="#666666"
   borderopacity="1"
   objecttolerance="10"
   gridtolerance="10"
   guidetolerance="10"
   inkscape:pageopacity="0"
   inkscape:pageshadow="2"
   inkscape:window-width="1916"
   inkscape:window-height="1056"
   id="namedview961"
   showgrid="false"
   inkscape:zoom="1.0799212"
   inkscape:cx="381.18329"
   inkscape:cy="114.53877"
   inkscape:window-x="0"
   inkscape:window-y="20"
   inkscape:window-maximized="1"
   inkscape:current-layer="Layer_1"
   fit-margin-top="0"
   fit-margin-left="0"
   fit-margin-right="0"
   fit-margin-bottom="0" />
<polygon
   style="fill:none;stroke:#000000;stroke-width:2"
   id="polygon2"
   points="409.959,94.991 704.537,605.213 115.382,605.213 "
   transform="translate(41.573257,-35.643)" /><rect
   style="fill:none"
   id="rect4"
   height="39.551998"
   width="600"
   y="0.0020004578"
   x="151.27725" /><g
   id="g52"
   transform="translate(41.573257,-35.643)">
		<path
   inkscape:connector-curvature="0"
   id="path6"
   d="m 194.096,62.515 c -1.209,0.624 -3.744,1.248 -6.942,1.248 -7.41,0 -12.948,-4.68 -12.948,-13.338 0,-8.269 5.577,-13.807 13.729,-13.807 3.237,0 5.343,0.702 6.24,1.17 l -0.858,2.769 c -1.248,-0.623 -3.081,-1.092 -5.265,-1.092 -6.162,0 -10.257,3.939 -10.257,10.843 0,6.474 3.705,10.569 10.063,10.569 2.106,0 4.212,-0.429 5.577,-1.092 z" />
		<path
   inkscape:connector-curvature="0"
   id="path8"
   d="m 214.922,53.74 c 0,6.981 -4.875,10.023 -9.399,10.023 -5.07,0 -9.048,-3.744 -9.048,-9.711 0,-6.279 4.173,-9.984 9.36,-9.984 5.421,0 9.087,3.939 9.087,9.672 z m -14.938,0.195 c 0,4.134 2.34,7.254 5.694,7.254 3.276,0 5.733,-3.081 5.733,-7.332 0,-3.198 -1.599,-7.215 -5.655,-7.215 -4.017,0 -5.772,3.744 -5.772,7.293 z" />
		<path
   inkscape:connector-curvature="0"
   id="path10"
   d="m 219.25,49.567 c 0,-1.989 -0.078,-3.549 -0.156,-5.109 h 3.003 l 0.156,3.081 h 0.117 c 1.053,-1.794 2.808,-3.471 5.967,-3.471 2.535,0 4.485,1.56 5.304,3.783 h 0.078 c 0.585,-1.092 1.365,-1.872 2.145,-2.457 1.131,-0.858 2.34,-1.326 4.134,-1.326 2.535,0 6.24,1.638 6.24,8.19 v 11.076 h -3.354 V 52.687 c 0,-3.666 -1.365,-5.812 -4.095,-5.812 -1.989,0 -3.471,1.443 -4.095,3.081 -0.156,0.508 -0.273,1.093 -0.273,1.717 v 11.661 h -3.354 v -11.31 c 0,-3.003 -1.326,-5.148 -3.939,-5.148 -2.106,0 -3.706,1.717 -4.251,3.433 -0.195,0.468 -0.273,1.092 -0.273,1.677 v 11.35 h -3.354 z" />
		<path
   inkscape:connector-curvature="0"
   id="path12"
   d="m 251.776,50.619 c 0,-2.418 -0.078,-4.368 -0.156,-6.162 h 3.042 l 0.195,3.237 h 0.078 c 1.365,-2.301 3.627,-3.627 6.708,-3.627 4.602,0 8.035,3.861 8.035,9.556 0,6.786 -4.173,10.14 -8.62,10.14 -2.496,0 -4.68,-1.092 -5.811,-2.964 h -0.078 v 10.258 h -3.393 z m 3.393,5.032 c 0,0.508 0.039,0.976 0.156,1.404 0.624,2.379 2.691,4.018 5.148,4.018 3.627,0 5.733,-2.965 5.733,-7.294 0,-3.744 -1.989,-6.981 -5.616,-6.981 -2.34,0 -4.563,1.639 -5.188,4.213 -0.117,0.429 -0.234,0.936 -0.234,1.365 v 3.275 z" />
		<path
   inkscape:connector-curvature="0"
   id="path14"
   d="m 289.762,58.147 c 0,1.989 0.039,3.705 0.156,5.188 h -3.042 l -0.195,-3.081 h -0.078 c -0.858,1.521 -2.886,3.51 -6.24,3.51 -2.964,0 -6.513,-1.677 -6.513,-8.268 V 44.457 h 3.432 v 10.414 c 0,3.588 1.131,6.045 4.212,6.045 2.301,0 3.9,-1.6 4.524,-3.159 0.195,-0.468 0.312,-1.092 0.312,-1.755 V 44.457 h 3.432 z" />
		<path
   inkscape:connector-curvature="0"
   id="path16"
   d="m 299.59,39.934 v 4.523 h 4.914 v 2.613 h -4.914 v 10.18 c 0,2.34 0.663,3.666 2.574,3.666 0.936,0 1.482,-0.078 1.989,-0.234 l 0.156,2.613 c -0.663,0.234 -1.716,0.468 -3.042,0.468 -1.599,0 -2.886,-0.546 -3.705,-1.442 -0.936,-1.054 -1.326,-2.73 -1.326,-4.953 V 47.071 h -2.925 v -2.613 h 2.925 v -3.51 z" />
		<path
   inkscape:connector-curvature="0"
   id="path18"
   d="m 310.042,54.52 c 0.078,4.642 3.003,6.553 6.474,6.553 2.457,0 3.978,-0.43 5.226,-0.976 l 0.624,2.457 c -1.209,0.546 -3.315,1.209 -6.318,1.209 -5.811,0 -9.282,-3.86 -9.282,-9.555 0,-5.695 3.354,-10.141 8.854,-10.141 6.201,0 7.8,5.382 7.8,8.854 0,0.702 -0.039,1.209 -0.117,1.599 z m 10.062,-2.457 c 0.039,-2.145 -0.897,-5.538 -4.758,-5.538 -3.51,0 -4.992,3.159 -5.265,5.538 z" />
		<path
   inkscape:connector-curvature="0"
   id="path20"
   d="m 327.669,50.347 c 0,-2.224 -0.039,-4.135 -0.156,-5.89 h 3.003 l 0.156,3.744 h 0.117 c 0.858,-2.535 2.964,-4.134 5.265,-4.134 0.351,0 0.624,0.039 0.936,0.078 v 3.237 c -0.351,-0.078 -0.702,-0.078 -1.17,-0.078 -2.418,0 -4.134,1.794 -4.602,4.368 -0.078,0.468 -0.117,1.053 -0.117,1.599 v 10.063 h -3.432 z" />
		<path
   inkscape:connector-curvature="0"
   id="path22"
   d="M 370.959,51.789 C 370.764,48.123 370.53,43.678 370.53,40.44 h -0.078 c -0.936,3.042 -1.989,6.356 -3.315,9.984 l -4.641,12.753 h -2.574 l -4.29,-12.52 c -1.248,-3.744 -2.262,-7.098 -3.003,-10.218 h -0.078 c -0.078,3.275 -0.273,7.644 -0.507,11.622 l -0.702,11.271 h -3.237 l 1.833,-26.287 h 4.329 l 4.485,12.715 c 1.092,3.237 1.95,6.123 2.652,8.854 h 0.078 c 0.702,-2.652 1.638,-5.539 2.808,-8.854 l 4.68,-12.715 h 4.329 l 1.638,26.287 h -3.354 z" />
		<path
   inkscape:connector-curvature="0"
   id="path24"
   d="m 382.19,54.52 c 0.078,4.642 3.003,6.553 6.474,6.553 2.457,0 3.978,-0.43 5.226,-0.976 l 0.624,2.457 c -1.209,0.546 -3.315,1.209 -6.318,1.209 -5.811,0 -9.282,-3.86 -9.282,-9.555 0,-5.695 3.354,-10.141 8.854,-10.141 6.201,0 7.8,5.382 7.8,8.854 0,0.702 -0.039,1.209 -0.117,1.599 z m 10.062,-2.457 c 0.039,-2.145 -0.897,-5.538 -4.758,-5.538 -3.51,0 -4.992,3.159 -5.265,5.538 z" />
		<path
   inkscape:connector-curvature="0"
   id="path26"
   d="m 399.817,49.567 c 0,-1.989 -0.078,-3.549 -0.156,-5.109 h 3.003 l 0.156,3.081 h 0.117 c 1.053,-1.794 2.808,-3.471 5.967,-3.471 2.535,0 4.485,1.56 5.304,3.783 h 0.078 c 0.586,-1.092 1.365,-1.872 2.146,-2.457 1.131,-0.858 2.34,-1.326 4.134,-1.326 2.535,0 6.24,1.638 6.24,8.19 v 11.076 h -3.354 V 52.687 c 0,-3.666 -1.365,-5.812 -4.096,-5.812 -1.988,0 -3.471,1.443 -4.096,3.081 -0.155,0.508 -0.272,1.093 -0.272,1.717 v 11.661 h -3.354 v -11.31 c 0,-3.003 -1.326,-5.148 -3.939,-5.148 -2.106,0 -3.705,1.717 -4.251,3.433 -0.195,0.468 -0.273,1.092 -0.273,1.677 v 11.35 h -3.354 z" />
		<path
   inkscape:connector-curvature="0"
   id="path28"
   d="m 449.426,53.74 c 0,6.981 -4.875,10.023 -9.399,10.023 -5.07,0 -9.049,-3.744 -9.049,-9.711 0,-6.279 4.174,-9.984 9.361,-9.984 5.421,0 9.087,3.939 9.087,9.672 z m -14.937,0.195 c 0,4.134 2.34,7.254 5.694,7.254 3.275,0 5.732,-3.081 5.732,-7.332 0,-3.198 -1.599,-7.215 -5.654,-7.215 -4.017,0 -5.772,3.744 -5.772,7.293 z" />
		<path
   inkscape:connector-curvature="0"
   id="path30"
   d="m 453.754,50.347 c 0,-2.224 -0.039,-4.135 -0.156,-5.89 h 3.003 l 0.156,3.744 h 0.117 c 0.857,-2.535 2.964,-4.134 5.266,-4.134 0.351,0 0.623,0.039 0.936,0.078 v 3.237 c -0.352,-0.078 -0.702,-0.078 -1.17,-0.078 -2.418,0 -4.135,1.794 -4.603,4.368 -0.077,0.468 -0.116,1.053 -0.116,1.599 v 10.063 h -3.433 z" />
		<path
   inkscape:connector-curvature="0"
   id="path32"
   d="m 468.73,44.457 4.096,11.154 c 0.467,1.248 0.936,2.73 1.248,3.861 h 0.077 c 0.351,-1.131 0.741,-2.574 1.21,-3.939 l 3.744,-11.076 h 3.627 l -5.148,13.456 c -2.457,6.474 -4.135,9.75 -6.475,11.817 -1.716,1.442 -3.354,2.027 -4.212,2.184 l -0.858,-2.847 c 0.858,-0.273 1.989,-0.819 3.004,-1.677 0.936,-0.741 2.066,-2.067 2.886,-3.822 0.155,-0.352 0.272,-0.624 0.272,-0.819 0,-0.195 -0.078,-0.468 -0.272,-0.897 l -6.942,-17.395 z" />
		<path
   inkscape:connector-curvature="0"
   id="path34"
   d="m 497.628,37.047 v 10.998 h 12.714 V 37.047 h 3.433 v 26.287 h -3.433 V 51.01 h -12.714 v 12.324 h -3.433 V 37.047 Z" />
		<path
   inkscape:connector-curvature="0"
   id="path36"
   d="m 523.757,39.154 c 0,1.17 -0.818,2.105 -2.184,2.105 -1.248,0 -2.067,-0.936 -2.067,-2.105 0,-1.169 0.858,-2.146 2.146,-2.146 1.248,0 2.105,0.937 2.105,2.146 z m -3.822,24.18 V 44.457 h 3.433 v 18.877 z" />
		<path
   inkscape:connector-curvature="0"
   id="path38"
   d="m 530.972,54.52 c 0.078,4.642 3.004,6.553 6.475,6.553 2.457,0 3.979,-0.43 5.227,-0.976 l 0.624,2.457 c -1.209,0.546 -3.315,1.209 -6.318,1.209 -5.812,0 -9.282,-3.86 -9.282,-9.555 0,-5.695 3.354,-10.141 8.853,-10.141 6.201,0 7.801,5.382 7.801,8.854 0,0.702 -0.039,1.209 -0.117,1.599 z m 10.063,-2.457 c 0.039,-2.145 -0.896,-5.538 -4.758,-5.538 -3.511,0 -4.992,3.159 -5.266,5.538 z" />
		<path
   inkscape:connector-curvature="0"
   id="path40"
   d="m 548.6,50.347 c 0,-2.224 -0.039,-4.135 -0.155,-5.89 h 3.003 l 0.156,3.744 h 0.116 c 0.858,-2.535 2.965,-4.134 5.266,-4.134 0.351,0 0.624,0.039 0.937,0.078 v 3.237 c -0.352,-0.078 -0.702,-0.078 -1.171,-0.078 -2.418,0 -4.134,1.794 -4.602,4.368 -0.078,0.468 -0.117,1.053 -0.117,1.599 V 63.334 H 548.6 Z" />
		<path
   inkscape:connector-curvature="0"
   id="path42"
   d="m 574.418,58.81 c 0,1.639 0.078,3.237 0.273,4.524 h -3.081 l -0.273,-2.379 h -0.117 c -1.053,1.481 -3.081,2.808 -5.771,2.808 -3.822,0 -5.772,-2.69 -5.772,-5.421 0,-4.563 4.056,-7.06 11.35,-7.021 v -0.39 c 0,-1.521 -0.43,-4.368 -4.291,-4.329 -1.794,0 -3.627,0.507 -4.953,1.404 l -0.779,-2.302 c 1.56,-0.975 3.861,-1.638 6.24,-1.638 5.771,0 7.176,3.939 7.176,7.684 v 7.06 z m -3.314,-5.11 c -3.744,-0.077 -7.996,0.585 -7.996,4.252 0,2.262 1.482,3.275 3.198,3.275 2.496,0 4.096,-1.56 4.642,-3.159 0.117,-0.39 0.156,-0.779 0.156,-1.092 z" />
		<path
   inkscape:connector-curvature="0"
   id="path44"
   d="m 579.956,50.347 c 0,-2.224 -0.039,-4.135 -0.155,-5.89 h 3.003 l 0.156,3.744 h 0.116 c 0.858,-2.535 2.965,-4.134 5.266,-4.134 0.351,0 0.624,0.039 0.937,0.078 v 3.237 c -0.352,-0.078 -0.702,-0.078 -1.171,-0.078 -2.418,0 -4.134,1.794 -4.602,4.368 -0.078,0.468 -0.117,1.053 -0.117,1.599 v 10.063 h -3.433 z" />
		<path
   inkscape:connector-curvature="0"
   id="path46"
   d="m 605.775,62.671 c -0.897,0.429 -2.886,1.092 -5.421,1.092 -5.694,0 -9.399,-3.86 -9.399,-9.633 0,-5.812 3.978,-10.063 10.14,-10.063 2.028,0 3.822,0.507 4.759,1.014 l -0.78,2.613 c -0.819,-0.429 -2.106,-0.897 -3.979,-0.897 -4.329,0 -6.669,3.237 -6.669,7.138 0,4.368 2.809,7.06 6.553,7.06 1.949,0 3.236,-0.469 4.212,-0.897 z" />
		<path
   inkscape:connector-curvature="0"
   id="path48"
   d="m 609.791,35.643 h 3.433 V 47.46 h 0.078 c 0.546,-0.975 1.404,-1.872 2.457,-2.457 1.014,-0.585 2.223,-0.936 3.51,-0.936 2.535,0 6.592,1.56 6.592,8.034 v 11.232 h -3.433 V 52.491 c 0,-3.042 -1.131,-5.577 -4.368,-5.577 -2.223,0 -3.939,1.561 -4.602,3.394 -0.195,0.507 -0.234,1.014 -0.234,1.638 v 11.389 h -3.433 z" />
		<path
   inkscape:connector-curvature="0"
   id="path50"
   d="m 632.177,44.457 4.096,11.154 c 0.468,1.248 0.936,2.73 1.248,3.861 h 0.078 c 0.351,-1.131 0.741,-2.574 1.209,-3.939 l 3.744,-11.076 h 3.627 l -5.148,13.456 c -2.457,6.474 -4.134,9.75 -6.474,11.817 -1.717,1.442 -3.354,2.027 -4.213,2.184 l -0.857,-2.847 c 0.857,-0.273 1.989,-0.819 3.003,-1.677 0.936,-0.741 2.067,-2.067 2.886,-3.822 0.156,-0.352 0.273,-0.624 0.273,-0.819 0,-0.195 -0.078,-0.468 -0.273,-0.897 l -6.942,-17.395 z" />
	</g>
<line
   style="fill:none;stroke:#000000;stroke-width:2"
   id="line949"
   y2="188.879"
   x2="526.31726"
   y1="188.879"
   x1="376.74725" /><line
   style="fill:none;stroke:#000000;stroke-width:2"
   id="line951"
   y2="266.32001"
   x2="571.33221"
   y1="266.32001"
   x1="332.03723" /><line
   style="fill:none;stroke:#000000;stroke-width:2"
   id="line953"
   y2="343.76001"
   x2="615.73926"
   y1="343.76001"
   x1="287.32626" /><line
   style="fill:none;stroke:#000000;stroke-width:2"
   id="line955"
   y2="421.20099"
   x2="660.44824"
   y1="421.20099"
   x1="242.61626" /><line
   style="fill:none;stroke:#000000;stroke-width:2"
   id="line957"
   y2="498.64001"
   x2="705.15625"
   y1="498.64001"
   x1="197.90625" />
<path
   style="fill:none;stroke:#000000;stroke-width:1px;stroke-linecap:butt;stroke-linejoin:miter;stroke-opacity:1;marker-end:url(#Arrow1Lend)"
   d="m 41.049337,443.06594 0.9197,-312.69604"
   id="path967"
   inkscape:connector-curvature="0" /><text
   xml:space="preserve"
   style="font-style:normal;font-weight:normal;font-size:13.33333302px;line-height:1.25;font-family:sans-serif;letter-spacing:0px;word-spacing:0px;fill:#000000;fill-opacity:1;stroke:none"
   x="-434.86011"
   y="24.3125"
   id="text2842"
   transform="rotate(-90)"><tspan
     sodipodi:role="line"
     id="tspan2840"
     x="-434.86011"
     y="24.3125"
     style="font-size:32px">–  Velocity/price  +</tspan></text>

<path
   inkscape:connector-curvature="0"
   id="path12258"
   d="m 835.94035,123.83155 0.9197,312.69604"
   style="fill:none;stroke:#000000;stroke-width:1px;stroke-linecap:butt;stroke-linejoin:miter;stroke-opacity:1;marker-end:url(#marker12266)" /><text
   id="text12262"
   y="-851.96985"
   x="221.4938"
   style="font-style:normal;font-weight:normal;font-size:13.33333302px;line-height:1.25;font-family:sans-serif;letter-spacing:0px;word-spacing:0px;fill:#000000;fill-opacity:1;stroke:none"
   xml:space="preserve"
   transform="rotate(90)"><tspan
     style="font-size:32px"
     y="-851.96985"
     x="221.4938"
     id="tspan12260"
     sodipodi:role="line">–  Size +</tspan></text>

<line
   x1="361.46838"
   y1="214.69266"
   x2="542.05914"
   y2="214.69266"
   id="line13374"
   style="fill:none;stroke:#000000;stroke-width:1;stroke-miterlimit:4;stroke-dasharray:none" /><line
   style="fill:none;stroke:#000000;stroke-width:1;stroke-miterlimit:4;stroke-dasharray:none"
   id="line13376"
   y2="240.50633"
   x2="556.875"
   y1="240.50633"
   x1="346.18948" /><text
   xml:space="preserve"
   style="font-style:normal;font-weight:normal;font-size:13.33333302px;line-height:1.25;font-family:sans-serif;letter-spacing:0px;word-spacing:0px;fill:#000000;fill-opacity:1;stroke:none"
   x="421.25122"
   y="207.58055"
   id="text13380"><tspan
     sodipodi:role="line"
     id="tspan13378"
     x="421.25122"
     y="207.58055">L1 cache</tspan></text>

<text
   id="text13384"
   y="233.58055"
   x="421.25122"
   style="font-style:normal;font-weight:normal;font-size:13.33333302px;line-height:1.25;font-family:sans-serif;letter-spacing:0px;word-spacing:0px;fill:#000000;fill-opacity:1;stroke:none"
   xml:space="preserve"><tspan
     y="233.58055"
     x="421.25122"
     id="tspan13382"
     sodipodi:role="line">L2 cache</tspan></text>

<text
   xml:space="preserve"
   style="font-style:normal;font-weight:normal;font-size:13.33333302px;line-height:1.25;font-family:sans-serif;letter-spacing:0px;word-spacing:0px;fill:#000000;fill-opacity:1;stroke:none"
   x="421.25122"
   y="259.58057"
   id="text13388"><tspan
     sodipodi:role="line"
     id="tspan13386"
     x="421.25122"
     y="259.58057">L3 cache</tspan></text>

<text
   id="text13392"
   y="301.58057"
   x="451.1412"
   style="font-style:normal;font-weight:normal;font-size:13.33333302px;line-height:1.25;font-family:sans-serif;letter-spacing:0px;word-spacing:0px;fill:#000000;fill-opacity:1;stroke:none"
   xml:space="preserve"><tspan
     y="301.58057"
     x="451.1412"
     id="tspan13390"
     sodipodi:role="line"
     style="text-align:center;text-anchor:middle">RAM memory</tspan><tspan
     y="318.24722"
     x="451.1412"
     sodipodi:role="line"
     id="tspan13398"
     style="text-align:center;text-anchor:middle">(DRAM)</tspan></text>

<text
   xml:space="preserve"
   style="font-style:normal;font-weight:normal;font-size:13.33333302px;line-height:1.25;font-family:sans-serif;letter-spacing:0px;word-spacing:0px;fill:#000000;fill-opacity:1;stroke:none"
   x="452.50381"
   y="379.58057"
   id="text13396"><tspan
     sodipodi:role="line"
     id="tspan13394"
     x="452.50381"
     y="379.58057"
     style="text-align:center;text-anchor:middle">Solid-state drives</tspan><tspan
     sodipodi:role="line"
     x="452.50381"
     y="396.24722"
     id="tspan13400"
     style="text-align:center;text-anchor:middle">(SSD)</tspan></text>

<text
   id="text13406"
   y="459.58057"
   x="452.50381"
   style="font-style:normal;font-weight:normal;font-size:13.33333302px;line-height:1.25;font-family:sans-serif;letter-spacing:0px;word-spacing:0px;fill:#000000;fill-opacity:1;stroke:none"
   xml:space="preserve"><tspan
     style="text-align:center;text-anchor:middle"
     y="459.58057"
     x="452.50381"
     id="tspan13402"
     sodipodi:role="line">Hard disk drives</tspan><tspan
     style="text-align:center;text-anchor:middle"
     id="tspan13404"
     y="476.24722"
     x="452.50381"
     sodipodi:role="line">(HDD)</tspan></text>

<text
   id="text13410"
   y="155.58055"
   x="421.25122"
   style="font-style:normal;font-weight:normal;font-size:13.33333302px;line-height:1.25;font-family:sans-serif;letter-spacing:0px;word-spacing:0px;fill:#000000;fill-opacity:1;stroke:none"
   xml:space="preserve"><tspan
     y="155.58055"
     x="421.25122"
     id="tspan13408"
     sodipodi:role="line">Registers</tspan></text>

<text
   xml:space="preserve"
   style="font-style:normal;font-weight:normal;font-size:13.33333302px;line-height:1.25;font-family:sans-serif;letter-spacing:0px;word-spacing:0px;fill:#000000;fill-opacity:1;stroke:none"
   x="452.50381"
   y="533.58057"
   id="text13416"><tspan
     sodipodi:role="line"
     id="tspan13412"
     x="452.50381"
     y="533.58057"
     style="text-align:center;text-anchor:middle">Remote/Offline storage</tspan><tspan
     sodipodi:role="line"
     x="452.50381"
     y="550.24725"
     id="tspan13414"
     style="text-align:center;text-anchor:middle">(Network, backups...)</tspan></text>

</svg>